<svg width="50" height="50" viewBox="0 0 50 50" fill="none" xmlns="http://www.w3.org/2000/svg">
<path fill-rule="evenodd" clip-rule="evenodd" d="M9.36113 18.7547H9.35957C7.63301 18.7547 6.23145 20.1562 6.23145 21.8828C6.23145 23.6094 7.63301 25.0109 9.35957 25.0109C11.0846 25.0109 12.4861 23.6094 12.4861 21.8828V10.7547L21.8627 9.58279L21.8674 15.625C20.1408 15.625 18.7393 17.0265 18.7393 18.7531C18.7393 20.4797 20.1408 21.8797 21.8674 21.8797C23.5939 21.8797 24.9955 20.4797 24.9955 18.7531L24.9861 7.81092C24.9861 7.36404 24.7939 6.93748 24.458 6.6406C24.1221 6.34373 23.6752 6.20623 23.2299 6.26248L10.7299 7.82498C9.94863 7.92185 9.36113 8.58748 9.36113 9.37498V18.7547Z" fill="white"/>
<path fill-rule="evenodd" clip-rule="evenodd" d="M19.714 32.1828C18.4437 33.4562 17.6421 34.2609 17.6421 34.2609C17.3515 34.5531 17.189 34.9484 17.1874 35.3593L17.1734 42.1843C17.1718 42.5984 17.3359 42.9968 17.6296 43.2906C17.9234 43.5843 18.3202 43.75 18.7359 43.75H25.653C26.0671 43.75 26.4624 43.5859 26.7562 43.2953L28.7952 41.264L19.714 32.1828ZM21.9187 29.9687L31.0093 39.0593L41.8624 28.2562C43.0702 27.0468 43.7499 25.4078 43.7499 23.7C43.7499 21.9906 43.0702 20.3515 41.8624 19.1437C41.8577 19.1375 41.853 19.1328 41.8484 19.1281C40.639 17.9203 38.9999 17.2406 37.2921 17.2406C35.5827 17.2406 33.9437 17.9203 32.7359 19.1281C29.6765 22.1875 25.2015 26.675 21.9187 29.9687Z" fill="white"/>
</svg>
