<svg width="433" height="433" viewBox="0 0 433 433" fill="none" xmlns="http://www.w3.org/2000/svg">
<path fill-rule="evenodd" clip-rule="evenodd" d="M73.038 58.8621C54 78.9066 54 111.168 54 175.69V244.127C54 308.649 54 340.91 73.038 360.955C92.0762 381 122.717 381 184 381H249C310.282 381 340.925 381 359.961 360.955C379 340.912 379 308.649 379 244.127V175.69C379 127.112 379 96.8204 370.875 76.2617V295.454C355.268 295.454 340.301 288.927 329.264 277.307L317.05 264.448C305.329 252.107 299.468 245.935 292.823 243.335C285.519 240.478 277.481 240.478 270.177 243.335C263.532 245.935 257.671 252.107 245.95 264.448L244.112 266.383C234.599 276.398 229.844 281.404 224.791 282.339C220.863 283.064 216.82 282.244 213.429 280.036C209.066 277.192 206.417 270.684 201.118 257.665L200.25 255.534C188.069 225.606 181.978 210.643 171.352 205.034C166.003 202.211 160.017 200.998 154.054 201.527C142.211 202.579 131.278 214.092 109.411 237.114L78.375 269.791V54C76.4965 55.4731 74.7218 57.0892 73.038 58.8621Z" fill="#7B7B7B"/>
<path d="M54.125 180.417C54.125 145.887 54.1633 121.805 56.6063 103.634C58.9795 85.9828 63.3201 76.6356 69.9779 69.9779C76.6356 63.3201 85.9828 58.9795 103.634 56.6063C121.805 54.1633 145.887 54.125 180.417 54.125H252.583C287.113 54.125 311.195 54.1633 329.365 56.6063C347.017 58.9795 356.364 63.3201 363.022 69.9779C369.679 76.6356 374.02 85.9828 376.394 103.634C378.837 121.805 378.875 145.887 378.875 180.417V252.583C378.875 287.113 378.837 311.195 376.394 329.365C374.02 347.017 369.679 356.364 363.022 363.022C356.364 369.679 347.017 374.02 329.365 376.394C311.195 378.837 287.113 378.875 252.583 378.875H180.417C145.887 378.875 121.805 378.837 103.634 376.394C85.9828 374.02 76.6356 369.679 69.9779 363.022C63.3201 356.364 58.9795 347.017 56.6063 329.365C54.1633 311.195 54.125 287.113 54.125 252.583V180.417Z" stroke="#7B7B7B" stroke-width="50"/>
<path d="M270.625 198.458C290.554 198.458 306.709 182.303 306.709 162.375C306.709 142.447 290.554 126.292 270.625 126.292C250.697 126.292 234.542 142.447 234.542 162.375C234.542 182.303 250.697 198.458 270.625 198.458Z" fill="#7B7B7B"/>
</svg>
