<svg width="364" height="364" viewBox="0 0 364 364" fill="none" xmlns="http://www.w3.org/2000/svg">
<path d="M270.14 83.2649V94.4882L216.45 63.3966C196.126 51.7182 167.765 51.7182 147.593 63.3966L93.9031 94.6399V83.2649C93.9031 49.1399 112.558 30.3333 146.683 30.3333H217.36C251.485 30.3333 270.14 49.1399 270.14 83.2649Z" fill="#F9B631"/>
<path d="M270.573 120.852L268.45 119.791L247.823 107.961L205.053 83.239C192.01 75.6557 171.99 75.6557 158.947 83.239L116.177 107.809L95.5499 119.942L92.8199 121.307C66.2783 139.204 64.4583 142.541 64.4583 171.206V239.759C64.4583 268.424 66.2783 271.761 93.4266 290.113L158.947 327.878C165.468 331.821 173.658 333.489 182 333.489C190.19 333.489 198.532 331.669 205.053 327.878L271.18 289.658C297.873 271.761 299.542 268.576 299.542 239.759V171.206C299.542 142.541 297.722 139.204 270.573 120.852ZM224.315 204.724L215.063 216.099C213.547 217.768 212.485 220.953 212.637 223.228L213.547 237.788C214.153 246.736 207.783 251.286 199.442 248.101L185.943 242.641C183.82 241.883 180.332 241.883 178.208 242.641L164.71 247.949C156.368 251.286 149.998 246.584 150.605 237.636L151.515 223.076C151.667 220.801 150.605 217.616 149.088 215.948L139.685 204.724C133.922 197.899 136.5 190.316 145.145 188.041L159.25 184.401C161.525 183.794 164.103 181.671 165.317 179.851L173.203 167.718C178.057 160.134 185.792 160.134 190.797 167.718L198.683 179.851C199.897 181.823 202.627 183.794 204.75 184.401L218.855 188.041C227.5 190.316 230.078 197.899 224.315 204.724Z" fill="#F9B631"/>
</svg>
