<svg width="40" height="83" viewBox="0 0 40 83" fill="none" xmlns="http://www.w3.org/2000/svg">
<g clip-path="url(#clip0_122_64)">
<path d="M14.9901 41.5193H23.0032V82.4013H14.9901V41.5193Z" fill="#F9B631"/>
<path d="M22.308 70.5215H27.7116V82.4013H22.308V70.5215Z" fill="#F9B631"/>
<path d="M26.9652 74.719H32.8023V82.4014H26.9652V74.719Z" fill="#F9B631"/>
<path d="M0.683857 36.9661H37.5925V44.1593H0.683857V36.9661Z" fill="#F9B631"/>
<path d="M39.172 19.8426C39.172 30.4705 30.5558 39.0865 19.9277 39.0865C9.29953 39.0865 0.68386 30.4705 0.68386 19.8426C0.68386 9.21406 9.29953 0.598389 19.9277 0.598389C30.556 0.598389 39.172 9.21406 39.172 19.8426ZM31.5149 19.9612C31.5149 13.6494 26.3984 8.53201 20.0857 8.53201C13.7745 8.53201 8.65711 13.6494 8.65711 19.9612C8.65711 26.2736 13.7743 31.3907 20.0857 31.3907C26.3984 31.3907 31.5149 26.2736 31.5149 19.9612Z" fill="#F9B631"/>
</g>
<defs>
<clipPath id="clip0_122_64">
<rect width="39.8558" height="83" fill="white" transform="matrix(-1 0 0 1 39.8558 0)"/>
</clipPath>
</defs>
</svg>
