<svg width="104" height="130" viewBox="0 0 104 130" fill="none" xmlns="http://www.w3.org/2000/svg">
<path d="M38.3333 85H65M51.6667 71.6667V98.3333M58.3333 5H26.3333C18.866 5 15.1323 5 12.2801 6.45327C9.77127 7.73153 7.73153 9.77127 6.45327 12.2801C5 15.1323 5 18.866 5 26.3333V103.667C5 111.134 5 114.868 6.45327 117.72C7.73153 120.229 9.77127 122.269 12.2801 123.547C15.1323 125 18.866 125 26.3333 125H77C84.4673 125 88.2013 125 91.0533 123.547C93.562 122.269 95.602 120.229 96.88 117.72C98.3333 114.868 98.3333 111.134 98.3333 103.667V45M58.3333 5L98.3333 45M58.3333 5V34.3333C58.3333 38.067 58.3333 39.9339 59.06 41.3599C59.6993 42.6143 60.7187 43.6342 61.9733 44.2734C63.3993 45 65.266 45 69 45H98.3333" stroke="#F9B631" stroke-width="10" stroke-linecap="round" stroke-linejoin="round"/>
</svg>
