<svg width="160" height="160" viewBox="0 0 160 160" fill="none" xmlns="http://www.w3.org/2000/svg">
<path fill-rule="evenodd" clip-rule="evenodd" d="M129.975 25C129.975 21.02 128.395 17.205 125.585 14.395C122.77 11.58 118.955 10 114.975 10C97.6596 10 62.2896 10 44.9746 10C40.9996 10 37.1796 11.58 34.3696 14.395C31.5546 17.205 29.9746 21.02 29.9746 25C29.9746 49.21 29.9746 110.755 29.9746 134.965C29.9746 138.945 31.5546 142.76 34.3696 145.57C37.1796 148.385 40.9996 149.965 44.9746 149.965C62.2896 149.965 97.6596 149.965 114.975 149.965C118.955 149.965 122.77 148.385 125.585 145.57C128.395 142.76 129.975 138.945 129.975 134.965C129.975 110.755 129.975 49.21 129.975 25ZM74.9946 98.4V135.06C74.9946 137.82 77.2346 140.06 79.9946 140.06C82.7546 140.06 84.9946 137.82 84.9946 135.06V98.445L101.135 117.815C102.9 119.935 106.055 120.22 108.175 118.455C110.295 116.685 110.585 113.53 108.815 111.41L83.8146 81.41C82.8646 80.27 81.4596 79.61 79.9746 79.61C78.4896 79.61 77.0846 80.27 76.1346 81.41L51.1346 111.41C49.3696 113.53 49.6546 116.685 51.7746 118.455C53.8946 120.22 57.0496 119.935 58.8146 117.815L74.9946 98.4ZM59.9946 59.97H59.9846C54.4646 59.97 49.9796 64.455 49.9796 69.98C49.9796 75.505 54.4646 79.985 59.9846 79.985C65.5096 79.985 69.9946 75.505 69.9946 69.98V34.365L99.9996 30.615L100.015 49.955C94.4896 49.955 90.0046 54.44 90.0046 59.96C90.0046 65.485 94.4896 69.97 100.015 69.97C105.535 69.97 110.02 65.485 110.02 59.96L109.995 24.95C109.995 23.515 109.38 22.15 108.305 21.205C107.23 20.255 105.8 19.815 104.375 19.99L64.3746 24.99C61.8746 25.305 59.9946 27.43 59.9946 29.955V59.97Z" fill="#F9B631"/>
</svg>
